<?xml version="1.0" encoding="UTF-8"?>
<svg width="14px" height="14px" viewBox="0 0 14 14" version="1.1" xmlns="http://www.w3.org/2000/svg" xmlns:xlink="http://www.w3.org/1999/xlink">
    <title>Shape</title>
    <g id="Symbols" stroke="none" stroke-width="1" fill="none" fill-rule="evenodd" fill-opacity="0.87">
        <g id="Icon-/-Close-/-Outlined" transform="translate(-5.000000, -5.000000)" fill="#000000">
            <path d="M13.4145,12.00025 L18.0005,7.414 C18.3915,7.023 18.3915,6.391 18.0005,6 C17.6105,5.609 16.9775,5.609 16.5865,6 L12.0005,10.58625 L7.414,6 C7.024,5.609 6.391,5.609 6,6 C5.61,6.391 5.61,7.023 6,7.414 L10.5865,12.00025 L6,16.586 C5.61,16.977 5.61,17.609 6,18 C6.196,18.195 6.452,18.293 6.707,18.293 C6.963,18.293 7.219,18.195 7.414,18 L12.0005,13.41425 L16.586,18 C16.782,18.195 17.038,18.293 17.293,18.293 C17.549,18.293 17.805,18.195 18,18 C18.391,17.609 18.391,16.977 18,16.586 L13.4145,12.00025 Z" id="Shape"></path>
        </g>
    </g>
</svg>